HIERARCHY
ROOT Hips
{
	OFFSET 0.000000 89.005402 0.000000
	CHANNELS 6 Xposition Yposition Zposition Xrotation Yrotation Zrotation
	JOINT Spine
	{
		OFFSET 0.116900 10.681000 0.373400
		CHANNELS 3 Xrotation Yrotation Zrotation
		JOINT Spine1
		{
			OFFSET 0.000000 13.840401 0.053500
			CHANNELS 3 Xrotation Yrotation Zrotation
			JOINT Spine2
			{
				OFFSET 0.000000 14.712700 -0.366200
				CHANNELS 3 Xrotation Yrotation Zrotation
				JOINT Neck
				{
					OFFSET 0.000000 35.415497 -3.314200
					CHANNELS 3 Xrotation Yrotation Zrotation
					JOINT Head
					{
						OFFSET 0.000000 16.899200 1.218300
						CHANNELS 3 Xrotation Yrotation Zrotation
						JOINT HeadTop_End
						{
							OFFSET 0.000000 22.206207 2.192500
							CHANNELS 3 Xrotation Yrotation Zrotation
							End Site
							{
								OFFSET 0.000000 22.314178 0.000000
							}
						}
					}
				}
				JOINT LeftShoulder
				{
					OFFSET 12.896400 26.716293 -4.548400
					CHANNELS 3 Xrotation Yrotation Zrotation
					JOINT LeftArm
					{
						OFFSET 19.027000 -4.857010 -1.718400
						CHANNELS 3 Xrotation Yrotation Zrotation
						JOINT LeftForeArm
						{
							OFFSET 24.179897 0.000000 0.000000
							CHANNELS 3 Xrotation Yrotation Zrotation
							JOINT LeftHand
							{
								OFFSET 27.156403 0.000000 0.000000
								CHANNELS 3 Xrotation Yrotation Zrotation
								JOINT LeftHandIndex1
								{
									OFFSET 16.441200 0.000000 0.000000
									CHANNELS 3 Xrotation Yrotation Zrotation
									JOINT LeftHandIndex2
									{
										OFFSET 4.821899 0.000000 0.000000
										CHANNELS 3 Xrotation Yrotation Zrotation
										JOINT LeftHandIndex3
										{
											OFFSET 6.386497 0.000000 0.000000
											CHANNELS 3 Xrotation Yrotation Zrotation
											JOINT LeftHandIndex4
											{
												OFFSET 5.188988 0.000000 0.000000
												CHANNELS 3 Xrotation Yrotation Zrotation
												End Site
												{
													OFFSET -0.178703 5.185913 0.000177
												}
											}
										}
									}
								}
								JOINT LeftHandThumb1
								{
									OFFSET 6.534897 -5.032593 5.900300
									CHANNELS 3 Xrotation Yrotation Zrotation
									JOINT LeftHandThumb2
									{
										OFFSET 3.818176 -2.204422 2.204423
										CHANNELS 3 Xrotation Yrotation Zrotation
										JOINT LeftHandThumb3
										{
											OFFSET 3.252098 -1.877594 1.877601
											CHANNELS 3 Xrotation Yrotation Zrotation
											JOINT LeftHandThumb4
											{
												OFFSET 5.251778 -3.032120 3.032117
												CHANNELS 3 Xrotation Yrotation Zrotation
												End Site
												{
													OFFSET 0.000023 6.780014 0.000000
												}
											}
										}
									}
								}
							}
						}
					}
				}
				JOINT RightShoulder
				{
					OFFSET -12.896300 26.716293 -4.548400
					CHANNELS 3 Xrotation Yrotation Zrotation
					JOINT RightArm
					{
						OFFSET -19.027000 -4.857010 -1.718400
						CHANNELS 3 Xrotation Yrotation Zrotation
						JOINT RightForeArm
						{
							OFFSET -24.179897 0.000000 0.000000
							CHANNELS 3 Xrotation Yrotation Zrotation
							JOINT RightHand
							{
								OFFSET -27.156403 0.000000 0.000000
								CHANNELS 3 Xrotation Yrotation Zrotation
								JOINT RightHandThumb1
								{
									OFFSET -6.591202 -4.852203 5.988100
									CHANNELS 3 Xrotation Yrotation Zrotation
									JOINT RightHandThumb2
									{
										OFFSET -3.818176 -2.204422 2.204423
										CHANNELS 3 Xrotation Yrotation Zrotation
										JOINT RightHandThumb3
										{
											OFFSET -3.252098 -1.877594 1.877601
											CHANNELS 3 Xrotation Yrotation Zrotation
											JOINT RightHandThumb4
											{
												OFFSET -5.251778 -3.032120 3.032117
												CHANNELS 3 Xrotation Yrotation Zrotation
												End Site
												{
													OFFSET -0.000023 6.780014 0.000000
												}
											}
										}
									}
								}
								JOINT RightHandIndex1
								{
									OFFSET -16.029404 0.000000 0.000000
									CHANNELS 3 Xrotation Yrotation Zrotation
									JOINT RightHandIndex2
									{
										OFFSET -5.213303 0.000000 0.000000
										CHANNELS 3 Xrotation Yrotation Zrotation
										JOINT RightHandIndex3
										{
											OFFSET -6.386528 0.000000 0.000000
											CHANNELS 3 Xrotation Yrotation Zrotation
											JOINT RightHandIndex4
											{
												OFFSET -5.189026 0.000000 0.000000
												CHANNELS 3 Xrotation Yrotation Zrotation
												End Site
												{
													OFFSET 0.236702 5.183624 0.001972
												}
											}
										}
									}
								}
							}
						}
					}
				}
			}
		}
	}
	JOINT LeftUpLeg
	{
		OFFSET 14.073000 -7.904099 -1.463000
		CHANNELS 3 Xrotation Yrotation Zrotation
		JOINT LeftLeg
		{
			OFFSET -0.109806 -34.073280 4.093200
			CHANNELS 3 Xrotation Yrotation Zrotation
			JOINT LeftFoot
			{
				OFFSET 0.109806 -29.899420 -6.319000
				CHANNELS 3 Xrotation Yrotation Zrotation
				JOINT LeftToeBase
				{
					OFFSET 1.551100 -14.988700 20.535801
					CHANNELS 3 Xrotation Yrotation Zrotation
					JOINT LeftToe_End
					{
						OFFSET 0.221200 0.570800 13.248301
						CHANNELS 3 Xrotation Yrotation Zrotation
						End Site
						{
							OFFSET 0.000000 13.262435 0.000000
						}
					}
				}
			}
		}
	}
	JOINT RightUpLeg
	{
		OFFSET -13.839300 -7.904099 -1.463000
		CHANNELS 3 Xrotation Yrotation Zrotation
		JOINT RightLeg
		{
			OFFSET 0.109694 -34.073219 4.093300
			CHANNELS 3 Xrotation Yrotation Zrotation
			JOINT RightFoot
			{
				OFFSET -0.109694 -29.899384 -6.319200
				CHANNELS 3 Xrotation Yrotation Zrotation
				JOINT RightToeBase
				{
					OFFSET -1.551100 -14.988700 20.535801
					CHANNELS 3 Xrotation Yrotation Zrotation
					JOINT RightToe_End
					{
						OFFSET -0.221200 0.570900 13.248299
						CHANNELS 3 Xrotation Yrotation Zrotation
						End Site
						{
							OFFSET 0.000000 13.262440 0.000000
						}
					}
				}
			}
		}
	}
}
MOTION
Frames: 5
Frame Time: 0.033333
16.001972 78.252296 8.790255 -6.161433 -1.066136 2.337124 24.142827 -2.964979 5.413473 -1.046997 -0.300046 -2.911877 -1.065731 -0.431015 -2.885355 2.532622 0.167253 1.440026 -0.933146 3.021977 -1.300557 -0.000001 -0.000000 0.000000 1.300420 -2.274532 -5.667545 15.616553 -55.848080 -40.476131 -0.000003 -51.211505 -0.000013 16.532775 7.731825 3.513611 -0.024294 -4.796338 -0.580184 0.011179 0.392957 -3.258025 0.000003 -0.000012 0.000008 -0.000000 0.000000 0.000001 -1.540031 3.690172 6.142351 3.939049 7.948723 0.746800 -0.579472 1.574994 2.538724 -0.000001 0.000001 -0.000000 4.485945 9.847529 3.741183 12.907972 53.269147 43.251145 -0.000000 40.168797 0.000002 -10.895572 -4.832474 -0.067040 -1.849254 -3.581786 -6.586133 4.637199 -8.634117 -0.225383 -1.273761 0.137314 -2.094871 0.000003 0.000001 -0.000001 -0.542212 3.468474 8.101733 0.060844 -0.919691 7.569205 0.060837 -0.919683 7.569219 0.000000 -0.000000 -0.000001 -28.781505 -5.875257 18.765299 62.022147 -1.209354 -0.380448 -0.695840 -5.378259 -14.467020 -21.274673 1.751825 -4.927625 -0.000000 -0.000000 0.000000 -28.546873 9.760811 -2.000159 62.159694 -3.056501 -10.379361 -21.242384 -0.220401 -0.767129 -3.664634 -0.165793 3.666419 0.000000 -0.000001 -0.000000 
16.079409 78.654404 8.965099 -6.308271 6.369785 6.817237 22.571315 -5.567461 2.702289 -1.291979 -0.533395 -3.215852 -1.322238 -0.669557 -3.177086 3.145311 -0.360698 0.618287 1.261130 -0.984578 -0.121213 -0.000001 0.000000 0.000000 1.470670 -2.863472 -6.534311 13.944316 -50.231332 -39.784554 -0.000035 -57.983300 -0.000033 15.500214 4.402182 3.470750 -0.017789 -4.806489 -0.502421 0.010654 0.383589 -3.180162 0.000013 -0.009414 0.077869 -0.000002 -0.000001 -0.000000 -1.540033 3.690176 6.142347 3.939047 7.948722 0.746798 -0.579474 1.574991 2.538724 0.000000 -0.000001 0.000002 1.864116 1.450854 2.981004 26.391829 57.590434 44.153164 -0.000001 30.103533 -0.000010 -5.182468 -3.792759 1.082817 -1.849249 -3.581787 -6.586133 4.637196 -8.634115 -0.225386 -1.273762 0.137312 -2.094870 -0.000000 0.000001 0.000000 -0.399479 3.763015 5.838183 0.030121 -0.647846 5.323779 0.029876 -0.645086 5.301201 0.000001 -0.000000 0.000000 -21.627488 -2.098073 19.946485 47.226278 -6.751359 -0.952696 -3.539532 -10.292921 -17.442288 -17.188571 0.476362 -1.897454 0.000000 0.000000 -0.000000 -25.679606 12.786802 -3.635345 62.761748 -9.699349 -10.846124 -24.513023 -2.585469 -2.650757 -2.956467 -0.095068 2.764571 -0.000000 0.000000 -0.000002 
16.329845 78.260399 9.141599 -6.049201 12.354517 10.443908 19.880579 -7.743876 0.542027 -0.780506 -0.764210 -3.858836 -0.826673 -0.905632 -3.820029 3.040888 -0.786677 0.266086 1.995179 -3.924386 1.240000 -0.000001 -0.000000 0.000000 2.140128 -6.447907 -7.286521 8.075595 -48.134973 -39.231896 -0.000016 -63.752303 -0.000020 15.538313 2.745854 1.208264 -0.115745 -4.662336 -1.689177 0.020080 0.526527 -4.367303 0.001283 0.133838 -1.109205 -0.000000 -0.000005 -0.000001 -1.540036 3.690175 6.142349 3.939047 7.948719 0.746795 -0.579473 1.574995 2.538727 -0.000001 0.000000 0.000000 0.088266 -3.944399 2.273647 33.026939 62.029893 46.977990 -0.000009 18.624111 0.000005 -2.873100 -1.651375 5.315305 -1.849250 -3.581788 -6.586132 4.637199 -8.634115 -0.225385 -1.273765 0.137313 -2.094869 -0.000002 0.000000 -0.000000 -0.245101 4.049829 3.573923 0.013451 -0.433227 3.557341 0.009788 -0.369621 3.034417 -0.000001 0.000000 -0.000001 -16.042176 0.838813 19.607142 33.616320 -9.765676 -1.398977 -6.241555 -14.678218 -21.189863 -12.263825 0.041417 -0.237509 0.000000 0.000000 0.000000 -25.015394 15.255484 -4.750280 65.081007 -14.042648 -11.200411 -26.793232 -5.133677 -3.938873 -2.595779 -0.069012 2.347135 -0.000000 -0.000001 0.000000 
17.031071 77.005325 9.240003 -5.383980 16.112870 12.549568 16.653963 -9.196616 -0.782469 0.416748 -0.975559 -4.657701 0.352127 -1.116602 -4.631882 2.154550 -1.033264 0.249711 1.211989 -5.504913 2.635073 0.000000 -0.000000 -0.000000 3.270876 -12.789680 -7.948859 -0.243005 -48.299823 -37.734767 -0.000035 -68.857678 -0.000037 16.562655 3.737212 -3.131541 -0.297823 -4.372519 -4.002114 0.046980 0.804611 -6.682896 0.012353 0.413036 -3.424550 -0.000000 0.000001 0.000003 -1.540033 3.690172 6.142345 3.939052 7.948723 0.746801 -0.579474 1.574992 2.538719 0.000004 0.000001 -0.000000 -0.609836 -5.931885 1.574835 30.436231 65.971090 54.583651 -0.000000 6.750338 0.000016 -3.659762 0.858472 11.817060 -1.849249 -3.581787 -6.586134 4.637199 -8.634114 -0.225385 -1.273765 0.137315 -2.094870 -0.000000 0.000001 -0.000000 -0.080545 4.329274 1.322199 0.004518 -0.251175 2.061349 0.000648 -0.095266 0.781749 0.000001 -0.000001 0.000001 -14.209775 1.744616 18.450115 27.201705 -10.002329 -1.591604 -10.150789 -17.094806 -23.831088 -7.050634 -0.000593 0.005628 -0.000000 0.000000 0.000000 -26.980017 17.195572 -4.891134 69.739312 -15.371488 -11.405260 -28.244197 -7.938691 -4.709822 -2.867126 -0.091496 2.688814 -0.000000 -0.000000 -0.000003 
17.695576 75.828583 9.143677 -4.591540 17.193256 12.823474 14.690364 -9.426826 -1.243375 1.513748 -1.067082 -5.114095 1.440063 -1.200987 -5.104710 0.999431 -1.161157 0.322494 -0.473754 -6.246643 3.584970 -0.000001 -0.000000 -0.000000 4.293686 -18.170916 -8.190094 -6.517609 -46.525596 -35.809961 0.000007 -73.840253 0.000022 18.689482 8.321464 -8.891053 -0.464289 -4.080443 -6.265347 0.084204 1.075701 -8.950993 0.034101 0.685785 -5.692254 0.000001 -0.000004 0.000003 -1.540030 3.690174 6.142345 3.939049 7.948718 0.746805 -0.579470 1.574993 2.538719 -0.000000 0.000003 0.000004 -0.587734 -5.776568 0.744005 30.383642 67.530210 56.929357 -0.000004 3.813911 -0.000005 -1.344983 3.019448 19.976346 -1.849251 -3.581787 -6.586133 4.637199 -8.634117 -0.225383 -1.273766 0.137309 -2.094865 -0.000000 0.000001 -0.000001 0.023602 4.498229 -0.031184 0.001606 -0.149704 1.228428 0.000352 0.069695 -0.571865 -0.000001 -0.000001 0.000001 -16.086851 1.160317 17.946211 28.830297 -9.562254 -1.514860 -13.007127 -17.204634 -24.537634 -4.879736 -0.000720 0.008926 -0.000000 -0.000000 -0.000000 -29.607729 18.043709 -4.176787 73.266141 -15.835353 -11.462756 -28.890064 -9.166117 -5.237730 -3.167927 -0.117716 3.037783 -0.000000 -0.000000 0.000000 
